Coordinates
version=1
nRows=19
nColumns=24
inDegrees=yes

Units are S.I. units (second, meters, Newtons, ...)
Angles are in degrees.

endheader
time	pelvis_tilt	pelvis_list	pelvis_rotation	pelvis_tx	pelvis_ty	pelvis_tz	hip_flexion_r	hip_adduction_r	hip_rotation_r	knee_angle_r	ankle_angle_r	subtalar_angle_r	mtp_angle_r	hip_flexion_l	hip_adduction_l	hip_rotation_l	knee_angle_l	ankle_angle_l	subtalar_angle_l	mtp_angle_l	lumbar_extension	lumbar_bending	lumbar_rotation
      0.80450000	     -5.28468631	     -2.17716473	      0.64642800	     -0.48101959	      0.99603785	      0.33564192	     14.94990166	      6.62057548	     -3.62290422	    -14.75473040	      2.81032980	     -8.43231844	      5.23899840	     23.73903522	     -2.05789584	      0.20596696	    -69.22562497	     -8.44377937	     -8.15569739	      2.50685565	      2.38383920	      4.96355976	      3.55505586
      0.80866667	     -5.22117934	     -2.11432759	      0.58585205	     -0.47597970	      0.99675432	      0.33580956	     14.38687124	      6.57400123	     -3.60665046	    -14.43456610	      2.93813956	     -8.24314750	      5.20859115	     24.25404115	     -1.97330617	      0.19862052	    -69.09136158	     -7.83502876	     -8.55314278	      2.36492502	      2.26887401	      4.90598417	      3.69168934
      0.81283333	     -5.21035243	     -2.05292278	      0.50974735	     -0.47097067	      0.99733352	      0.33600330	     13.89843397	      6.53063875	     -3.58361592	    -14.14975980	      3.06596131	     -8.11313278	      5.19829548	     24.81806718	     -1.90114904	      0.16984706	    -68.91690684	     -7.21503540	     -8.93971321	      2.30901028	      2.22291945	      4.84467922	      3.76054454
      0.81700000	     -5.12041377	     -1.98546167	      0.43960458	     -0.46591246	      0.99804879	      0.33617207	     13.29647825	      6.47607825	     -3.57384600	    -13.80875957	      3.20105597	     -7.83584740	      5.16955215	     25.26400795	     -1.82002661	      0.14304764	    -68.65384192	     -6.65896110	     -9.32886123	      2.15878985	      2.07721115	      4.78300773	      3.95188392
      0.82116667	     -5.10517191	     -1.91413988	      0.34821957	     -0.46091166	      0.99859604	      0.33636679	     12.80194896	      6.42109700	     -3.53725557	    -13.52064590	      3.32830134	     -7.69893044	      5.16041186	     25.78368276	     -1.74314176	      0.09560820	    -68.35431722	     -6.05694546	     -9.69867115	      2.10402802	      2.02507031	      4.73066100	      4.01793922
      0.82533333	     -5.04365104	     -1.82093402	      0.28050508	     -0.45589558	      0.99917389	      0.33648310	     12.27399419	      6.31653174	     -3.64326359	    -13.26973218	      3.56363228	     -7.20697409	      4.77935741	     26.23312963	     -1.62702882	      0.05991654	    -67.98633877	     -5.51627418	    -10.10746398	      0.21298893	      1.91158330	      4.62860657	      4.13132927
      0.82950000	     -5.02233308	     -1.75129404	      0.15717536	     -0.45091388	      0.99967302	      0.33674743	     11.76125776	      6.27496505	     -3.53159450	    -12.94882706	      3.62314028	     -7.09832369	      4.77575388	     26.70731119	     -1.57951155	     -0.02973346	    -67.57127484	     -4.93192060	    -10.41005677	      0.19177523	      1.83708982	      4.56507465	      4.26154898
      0.83366667	     -4.95012711	     -1.68580843	      0.06162764	     -0.44590218	      1.00021987	      0.33695568	     11.17995502	      6.22510883	     -3.48486854	    -12.60200183	      3.74478005	     -6.90385462	      4.76708196	     27.10758892	     -1.52447666	     -0.09452986	    -67.09126346	     -4.41844698	    -10.71434495	      0.13524431	      1.71321718	      4.49665681	      4.47958795
      0.83783333	     -4.94877391	     -1.62767700	     -0.05644534	     -0.44094246	      1.00058992	      0.33717988	     10.70763022	      6.18224971	     -3.43540187	    -12.31929734	      3.86719802	     -6.73992658	      4.76393425	     27.57631950	     -1.48731404	     -0.17779550	    -66.57857051	     -3.87184516	    -11.00637242	      0.10077406	      1.67240004	      4.44619993	      4.57543413
      0.84200000	     -4.90144587	     -1.55148369	     -0.16848361	     -0.43596563	      1.00102146	      0.33738656	     10.17423508	      6.11573344	     -3.39693634	    -12.01029847	      3.99463405	     -6.49091754	      4.75717045	     27.96615168	     -1.42717783	     -0.26090752	    -65.98808929	     -3.36644009	    -11.27191754	      0.03658221	      1.56900815	      4.37446889	      4.74530591
      0.84616667	     -4.88418843	     -1.49737309	     -0.28157760	     -0.43101537	      1.00134873	      0.33758875	      9.68320568	      6.07176785	     -3.35590409	    -11.71831236	      4.11330563	     -6.28643560	      4.75296627	     28.38032332	     -1.39310373	     -0.33643072	    -65.36237052	     -2.86091809	    -11.49751363	     -0.01743500	      1.50112332	      4.33171846	      4.85929969
      0.85033333	     -4.85316436	     -1.42727585	     -0.39878544	     -0.42606017	      1.00166497	      0.33779141	      9.17663695	      6.00911847	     -3.30923271	    -11.42497365	      4.23239891	     -6.05923507	      4.74919429	     28.75454929	     -1.34513050	     -0.42130757	    -64.67264210	     -2.37124827	    -11.68998391	     -0.07910449	      1.41581854	      4.26743337	      4.99055724
      0.85450000	     -4.84065832	     -1.36221619	     -0.50321356	     -0.42111023	      1.00190822	      0.33797328	      8.69113425	      5.94705277	     -3.29234532	    -11.12837561	      4.35998263	     -5.78635575	      4.74377588	     29.13509080	     -1.29662940	     -0.49156408	    -63.93423105	     -1.92789700	    -11.83571154	     -0.17601802	      1.35069446	      4.19195150	      5.15756142
      0.85866667	     -4.83515770	     -1.29344833	     -0.62494747	     -0.41615869	      1.00211712	      0.33815413	      8.22128651	      5.88102787	     -3.25236257	    -10.84864585	      4.47726793	     -5.55009677	      4.74056945	     29.49591158	     -1.25177787	     -0.58009669	    -63.13475932	     -1.48627960	    -11.96391195	     -0.27231193	      1.30051629	      4.13146165	      5.27911270
      0.86283333	     -4.82288593	     -1.24107175	     -0.73763432	     -0.41121913	      1.00228039	      0.33831853	      7.74292157	      5.83075240	     -3.21307640	    -10.56284347	      4.58985435	     -5.32703396	      4.73905209	     29.83576022	     -1.22037576	     -0.65168162	    -62.29313608	     -1.06603547	    -12.04939066	     -0.37557442	      1.23488127	      4.09195631	      5.40015072
      0.86700000	     -4.83170564	     -1.18078549	     -0.87084666	     -0.40629902	      1.00237572	      0.33849038	      7.30021536	      5.77369786	     -3.13589851	    -10.30010837	      4.69527283	     -5.15015086	      4.74117531	     30.17497945	     -1.19000436	     -0.74487673	    -61.39598890	     -0.66194125	    -12.12312232	     -0.43705671	      1.19003904	      4.05457693	      5.47663957
      0.87116667	     -4.79263313	     -1.12668276	     -0.96712882	     -0.40133289	      1.00251511	      0.33862525	      6.78579775	      5.71644099	     -3.11934458	     -9.99656572	      4.80565338	     -4.90249805	      4.74430874	     30.43962111	     -1.15087876	     -0.80468735	    -60.43839886	     -0.31549323	    -12.13960571	     -0.55484444	      1.09792307	      4.00235244	      5.63131291
      0.87533333	     -4.78185893	     -1.07957613	     -1.08681696	     -0.39638100	      1.00256418	      0.33878176	      6.31481359	      5.66884821	     -3.06832795	     -9.71782573	      4.91412583	     -4.70455367	      4.75018510	     30.71465479	     -1.13488724	     -0.89110128	    -59.43731810	      0.01523807	    -12.14177330	     -0.65586365	      1.04250105	      3.96368530	      5.73056831
      0.87950000	     -4.80342109	     -1.03460571	     -1.21394190	     -0.39145835	      1.00251814	      0.33892976	      5.88999308	      5.62508365	     -2.98457250	     -9.45858133	      5.01749839	     -4.53730295	      4.75676832	     31.00596462	     -1.11879707	     -0.97047853	    -58.38813737	      0.31581194	    -12.12021034	     -0.72420416	      1.01698494	      3.94061953	      5.80668724
